<svg xmlns="http://www.w3.org/2000/svg" width="7.156" height="13" viewBox="0 0 7.156 13">
  <metadata><?xpacket begin="﻿" id="W5M0MpCehiHzreSzNTczkc9d"?>
<x:xmpmeta xmlns:x="adobe:ns:meta/" x:xmptk="Adobe XMP Core 5.6-c138 79.159824, 2016/09/14-01:09:01        ">
   <rdf:RDF xmlns:rdf="http://www.w3.org/1999/02/22-rdf-syntax-ns#">
      <rdf:Description rdf:about=""/>
   </rdf:RDF>
</x:xmpmeta>
                                                                                                    
                                                                                                    
                                                                                                    
                                                                                                    
                                                                                                    
                                                                                                    
                                                                                                    
                                                                                                    
                                                                                                    
                                                                                                    
                                                                                                    
                                                                                                    
                                                                                                    
                                                                                                    
                                                                                                    
                                                                                                    
                                                                                                    
                                                                                                    
                                                                                                    
                                                                                                    
                           
<?xpacket end="w"?></metadata>
<defs>
    <style>
      .cls-1 {
        fill-rule: evenodd;
      }
    </style>
  </defs>
  <path id="Forma_1" data-name="Forma 1" class="cls-1" d="M887.875,17.009l-1.713,0a2.983,2.983,0,0,0-3.17,3.2v1.474H881.27a0.268,0.268,0,0,0-.27.265v2.135a0.268,0.268,0,0,0,.27.265h1.722v5.388a0.267,0.267,0,0,0,.27.265h2.248a0.267,0.267,0,0,0,.269-0.265V24.341h2.015a0.267,0.267,0,0,0,.269-0.265V21.941a0.265,0.265,0,0,0-.079-0.187,0.272,0.272,0,0,0-.191-0.078h-2.015V20.427a0.76,0.76,0,0,1,.941-0.905h1.155a0.267,0.267,0,0,0,.269-0.265V17.273A0.267,0.267,0,0,0,887.875,17.009Z" transform="translate(-881 -17)"/>
</svg>
