<svg xmlns="http://www.w3.org/2000/svg" width="11" height="10" viewBox="0 0 11 10">
  <metadata><?xpacket begin="﻿" id="W5M0MpCehiHzreSzNTczkc9d"?>
<x:xmpmeta xmlns:x="adobe:ns:meta/" x:xmptk="Adobe XMP Core 5.6-c138 79.159824, 2016/09/14-01:09:01        ">
   <rdf:RDF xmlns:rdf="http://www.w3.org/1999/02/22-rdf-syntax-ns#">
      <rdf:Description rdf:about=""/>
   </rdf:RDF>
</x:xmpmeta>
                                                                                                    
                                                                                                    
                                                                                                    
                                                                                                    
                                                                                                    
                                                                                                    
                                                                                                    
                                                                                                    
                                                                                                    
                                                                                                    
                                                                                                    
                                                                                                    
                                                                                                    
                                                                                                    
                                                                                                    
                                                                                                    
                                                                                                    
                                                                                                    
                                                                                                    
                                                                                                    
                           
<?xpacket end="w"?></metadata>
<defs>
    <style>
      .cls-1 {
        fill-rule: evenodd;
      }
    </style>
  </defs>
  <path id="Forma_1" data-name="Forma 1" class="cls-1" d="M347.86,123.879a0.473,0.473,0,0,0-.043-0.7l-4.914-4.042a0.643,0.643,0,0,0-.8.009l-4.93,4.248a0.469,0.469,0,0,0-.024.7l0.123,0.121a0.563,0.563,0,0,0,.74.053l0.369-.31V128.5a0.52,0.52,0,0,0,.536.5h1.922a0.52,0.52,0,0,0,.536-0.5v-2.177h2.452V128.5a0.49,0.49,0,0,0,.5.5h2.037a0.521,0.521,0,0,0,.537-0.5v-4.477l0.227,0.188a0.5,0.5,0,0,0,.588-0.186Z" transform="translate(-337 -119)"/>
</svg>
