<svg xmlns="http://www.w3.org/2000/svg" width="41" height="41" viewBox="0 0 41 41">
  <metadata><?xpacket begin="﻿" id="W5M0MpCehiHzreSzNTczkc9d"?>
<x:xmpmeta xmlns:x="adobe:ns:meta/" x:xmptk="Adobe XMP Core 5.6-c138 79.159824, 2016/09/14-01:09:01        ">
   <rdf:RDF xmlns:rdf="http://www.w3.org/1999/02/22-rdf-syntax-ns#">
      <rdf:Description rdf:about=""/>
   </rdf:RDF>
</x:xmpmeta>
                                                                                                    
                                                                                                    
                                                                                                    
                                                                                                    
                                                                                                    
                                                                                                    
                                                                                                    
                                                                                                    
                                                                                                    
                                                                                                    
                                                                                                    
                                                                                                    
                                                                                                    
                                                                                                    
                                                                                                    
                                                                                                    
                                                                                                    
                                                                                                    
                                                                                                    
                                                                                                    
                           
<?xpacket end="w"?></metadata>
<defs>
    <style>
      .cls-1 {
        fill: #888;
        fill-rule: evenodd;
      }
    </style>
  </defs>
  <path class="cls-1" d="M801.839,935.484a1.986,1.986,0,0,0-1.984-1.984h-6.613a1.986,1.986,0,0,0-1.984,1.984V942.1a1.986,1.986,0,0,0,1.984,1.984h6.613a1.986,1.986,0,0,0,1.984-1.984v-6.612Zm-1.323,6.612a0.662,0.662,0,0,1-.661.662h-6.613a0.662,0.662,0,0,1-.661-0.662v-6.612a0.661,0.661,0,0,1,.661-0.662h6.613a0.661,0.661,0,0,1,.661.662V942.1Zm6.783,9.034-5.952-6.613,0.983-.885,5.952,6.613Zm-21.5.006-0.983-.885,5.952-6.612,0.983,0.885Zm21.168-22.489-4.629,5.29-1-.871,4.629-5.29Zm-21.165-2.2,5.952,6.614-0.983.885-5.952-6.614ZM821.016,913h-8.339a3.306,3.306,0,0,0-2.912,1.738l-3.69,6.855-1.317-.6-0.547,1.2,0.722,0.328-0.73,1.462-0.658-.3-4.078-4.076H785.306A3.31,3.31,0,0,0,782,922.919v27.774A3.31,3.31,0,0,0,785.306,954H807.79a3.311,3.311,0,0,0,3.307-3.306V927.122l-1.11-.5,0.731-1.461,0.766,0.349,0.548-1.2-1.317-.6,2.467-5.922a1.32,1.32,0,0,1,1.221-.814h6.613V913Zm-14.879,10.074,3.375,1.534-0.731,1.462-3.375-1.534Zm-7.217-2.139,2.645,2.645h-9.336l-2.2-2.645h8.895Zm10.854,29.758a1.986,1.986,0,0,1-1.984,1.984H785.306a1.987,1.987,0,0,1-1.984-1.984V922.919a1.987,1.987,0,0,1,1.984-1.984h3l3.306,3.968h11.409l6.756,3.071v22.719Zm4.629-35.048a2.638,2.638,0,0,0-2.441,1.627l-2.451,5.882-2.229-1.013,3.648-6.775a1.982,1.982,0,0,1,1.747-1.044H814.4v1.323Zm2.645,0h-1.322v-1.323h1.322v1.323Zm2.645,0h-1.322v-1.323h1.322v1.323ZM799.5,950.032h1.322v1.322H799.5v-1.322Zm-6.613,0h5.29v1.322h-5.29v-1.322Zm29.584-27.378-2.116-2.821-2.117,2.821A2.646,2.646,0,1,0,822.471,922.654Zm-2.116,2.91a1.323,1.323,0,0,1-1.059-2.116l1.059-1.41,1.058,1.41A1.323,1.323,0,0,1,820.355,925.564Z" transform="translate(-782 -913)"/>
</svg>
