<svg xmlns="http://www.w3.org/2000/svg" width="41" height="41" viewBox="0 0 41 41">
  <metadata><?xpacket begin="﻿" id="W5M0MpCehiHzreSzNTczkc9d"?>
<x:xmpmeta xmlns:x="adobe:ns:meta/" x:xmptk="Adobe XMP Core 5.6-c138 79.159824, 2016/09/14-01:09:01        ">
   <rdf:RDF xmlns:rdf="http://www.w3.org/1999/02/22-rdf-syntax-ns#">
      <rdf:Description rdf:about=""/>
   </rdf:RDF>
</x:xmpmeta>
                                                                                                    
                                                                                                    
                                                                                                    
                                                                                                    
                                                                                                    
                                                                                                    
                                                                                                    
                                                                                                    
                                                                                                    
                                                                                                    
                                                                                                    
                                                                                                    
                                                                                                    
                                                                                                    
                                                                                                    
                                                                                                    
                                                                                                    
                                                                                                    
                                                                                                    
                                                                                                    
                           
<?xpacket end="w"?></metadata>
<defs>
    <style>
      .cls-1 {
        fill: #8a8a8a;
        fill-rule: evenodd;
      }
    </style>
  </defs>
  <path id="Forma_1" data-name="Forma 1" class="cls-1" d="M673.263,919.276a0.8,0.8,0,1,0-1.163,1.1l0.006,0.007A0.8,0.8,0,1,0,673.263,919.276Zm2.628,3.364a0.8,0.8,0,1,0-1.358.85,18.892,18.892,0,1,1-5.7-5.817,0.8,0.8,0,0,0,.877-1.34A20.489,20.489,0,1,0,675.891,922.64Zm-2.44,4.687a0.134,0.134,0,0,0-.007-0.018l-0.006-.014a16.242,16.242,0,0,0-3.426-5.147,0.861,0.861,0,0,0-.074-0.086,0.669,0.669,0,0,0-.087-0.074,16.231,16.231,0,0,0-5.147-3.426l-0.014-.007-0.016-.006a16.171,16.171,0,0,0-12.348,0l-0.016.006-0.014.007a16.246,16.246,0,0,0-5.148,3.426,0.758,0.758,0,0,0-.16.16,16.246,16.246,0,0,0-3.426,5.148,0.139,0.139,0,0,0-.006.013,0.115,0.115,0,0,0-.006.017,16.17,16.17,0,0,0,3.512,17.612,0.8,0.8,0,0,0,1.132-1.133,14.589,14.589,0,0,1-2.838-3.994l1.2-.5a0.8,0.8,0,1,0-.612-1.479l-1.2.5a14.53,14.53,0,0,1-.8-4.03h3.9a0.8,0.8,0,0,0,0-1.6h-3.9a14.479,14.479,0,0,1,.8-4.029l1.2,0.5a0.8,0.8,0,0,0,.613-1.48l-1.2-.5a14.633,14.633,0,0,1,2.286-3.41l1.108,1.109a0.8,0.8,0,0,0,1.133-1.133l-1.109-1.108a14.618,14.618,0,0,1,3.411-2.286l0.5,1.2a0.8,0.8,0,0,0,.74.5,0.812,0.812,0,0,0,.307-0.061,0.8,0.8,0,0,0,.433-1.046l-0.5-1.2a14.465,14.465,0,0,1,4.028-.8v3.421a0.8,0.8,0,0,0,1.6,0v-3.421a14.465,14.465,0,0,1,4.028.8l-0.5,1.2a0.8,0.8,0,1,0,1.479.612l0.5-1.2a14.612,14.612,0,0,1,3.41,2.286l-0.913.913a0.8,0.8,0,0,0,1.132,1.133l0.914-.914a14.633,14.633,0,0,1,2.286,3.41l-1.2.5a0.8,0.8,0,1,0,.613,1.48l1.2-.5a14.515,14.515,0,0,1,.8,4.029h-3.5a0.8,0.8,0,1,0,0,1.6h3.5a14.53,14.53,0,0,1-.8,4.031l-1.2-.5a0.8,0.8,0,1,0-.613,1.479l1.2,0.5a14.61,14.61,0,0,1-2.838,3.994,0.8,0.8,0,0,0,1.132,1.132A16.171,16.171,0,0,0,673.451,927.327Zm-7.817-.961a0.8,0.8,0,0,0-1.133,0l-4.85,4.85a2.561,2.561,0,0,0-3.445,3.445l-0.3.3a0.8,0.8,0,0,0,1.132,1.133l0.307-.307a2.561,2.561,0,0,0,3.438-3.438l4.854-4.853A0.8,0.8,0,0,0,665.634,926.366Zm-7.144,8.094a0.955,0.955,0,0,1-.668-0.271l-0.006-.006a0.109,0.109,0,0,0-.011-0.01A0.961,0.961,0,1,1,658.49,934.46Zm-2.867,10.317a0.8,0.8,0,1,0,.234.566A0.808,0.808,0,0,0,655.623,944.777Zm6.32-.235H658.18a0.8,0.8,0,0,0,0,1.6h3.763A0.8,0.8,0,0,0,661.943,944.542Z" transform="translate(-638 -913)"/>
</svg>
