<svg xmlns="http://www.w3.org/2000/svg" width="41" height="41" viewBox="0 0 41 41">
  <metadata><?xpacket begin="﻿" id="W5M0MpCehiHzreSzNTczkc9d"?>
<x:xmpmeta xmlns:x="adobe:ns:meta/" x:xmptk="Adobe XMP Core 5.6-c138 79.159824, 2016/09/14-01:09:01        ">
   <rdf:RDF xmlns:rdf="http://www.w3.org/1999/02/22-rdf-syntax-ns#">
      <rdf:Description rdf:about=""/>
   </rdf:RDF>
</x:xmpmeta>
                                                                                                    
                                                                                                    
                                                                                                    
                                                                                                    
                                                                                                    
                                                                                                    
                                                                                                    
                                                                                                    
                                                                                                    
                                                                                                    
                                                                                                    
                                                                                                    
                                                                                                    
                                                                                                    
                                                                                                    
                                                                                                    
                                                                                                    
                                                                                                    
                                                                                                    
                                                                                                    
                           
<?xpacket end="w"?></metadata>
<defs>
    <style>
      .cls-1 {
        fill: #8a8a8a;
        fill-rule: evenodd;
      }
    </style>
  </defs>
  <path id="Forma_1" data-name="Forma 1" class="cls-1" d="M501.485,916.763a2.723,2.723,0,1,0,2.722,2.723A2.726,2.726,0,0,0,501.485,916.763Zm0,3.844a1.121,1.121,0,1,1,1.121-1.121A1.122,1.122,0,0,1,501.485,920.607Zm0.845,13.932-0.023-.057a0.8,0.8,0,0,0-1.485.6l0.024,0.057A0.8,0.8,0,1,0,502.33,934.539Zm14.445-14.324-10.871-5.47a6.481,6.481,0,0,0-10.231,7.614,0,0,0,0,0,0,0l3.909,9.66a0.8,0.8,0,0,0,.743.5,0.8,0.8,0,0,0,.742-1.1l-2.484-6.136a6.482,6.482,0,0,0,9.041-7.881l8.43,4.241A0.8,0.8,0,0,0,516.775,920.215Zm-15.29,4.156a4.885,4.885,0,1,1,4.884-4.885A4.89,4.89,0,0,1,501.485,924.371Zm32.636,4.575-0.038-.023-10.752-5.409a0.8,0.8,0,1,0-.719,1.431l8.093,4.072a3.522,3.522,0,0,0,1.568,6.56l-6.394,8.725c0.016-.236.024-0.473,0.024-0.713a10.408,10.408,0,0,0-20.653-1.835l-1.733-4.283a0.8,0.8,0,0,0-1.484.6l3.848,9.51c0.005,0.011.011,0.02,0.016,0.031a10.4,10.4,0,0,0,17.7,2.5l0,0,0.051-.069q0.248-.312.471-0.644L535.2,934.3a3.621,3.621,0,0,0,.227-0.31c0.018-.025.035-0.051,0.05-0.077A3.519,3.519,0,0,0,534.121,928.946Zm-11.3,19.531-0.444.606A8.79,8.79,0,1,1,522.818,948.477Zm11.294-15.409-0.178.242A1.9,1.9,0,1,1,534.112,933.068ZM519.98,921.827l-0.011,0a0.8,0.8,0,0,0-.718,1.432l0.01,0A0.8,0.8,0,0,0,519.98,921.827ZM515.5,941.054a2.536,2.536,0,1,0,2.536,2.535A2.538,2.538,0,0,0,515.5,941.054Zm0,3.47a0.935,0.935,0,1,1,.934-0.935A0.935,0.935,0,0,1,515.5,944.524Zm6.439-2.639L521.2,941.7l-0.32-.772,0.395-.657a0.8,0.8,0,0,0-.118-0.977l-1.337-1.345a0.8,0.8,0,0,0-.98-0.122l-0.662.4-0.772-.32-0.188-.754a0.8,0.8,0,0,0-.777-0.607h-1.892a0.8,0.8,0,0,0-.777.607l-0.188.754-0.771.32-0.662-.4a0.8,0.8,0,0,0-.98.122l-1.337,1.345a0.8,0.8,0,0,0-.119.977l0.4,0.657-0.32.772-0.733.183a0.8,0.8,0,0,0-.607.78l0.007,1.9a0.8,0.8,0,0,0,.607.775l0.726,0.181,0.32,0.772-0.38.631a0.8,0.8,0,0,0,.122.981l1.357,1.349a0.8,0.8,0,0,0,.977.118l0.627-.376,0.771,0.319,0.176,0.707a0.8,0.8,0,0,0,.777.607h1.916a0.8,0.8,0,0,0,.777-0.607l0.176-.707,0.772-.319,0.626,0.376a0.8,0.8,0,0,0,.977-0.118l1.357-1.349a0.8,0.8,0,0,0,.122-0.981l-0.38-.631,0.32-.772,0.727-.181a0.8,0.8,0,0,0,.607-0.775l0.007-1.9A0.8,0.8,0,0,0,521.934,941.885Zm-1,2.055-0.514.128a0.8,0.8,0,0,0-.546.471l-0.628,1.518a0.8,0.8,0,0,0,.053.719l0.264,0.44-0.469.467-0.438-.264a0.8,0.8,0,0,0-.719-0.053L516.42,948a0.8,0.8,0,0,0-.47.546l-0.122.491h-0.665l-0.123-.491a0.8,0.8,0,0,0-.47-0.546l-1.517-.629a0.8,0.8,0,0,0-.719.053l-0.438.264-0.47-.467,0.265-.44a0.8,0.8,0,0,0,.053-0.719l-0.629-1.518a0.8,0.8,0,0,0-.546-0.471l-0.513-.128,0-.653,0.516-.129a0.8,0.8,0,0,0,.546-0.47l0.629-1.518a0.8,0.8,0,0,0-.053-0.719l-0.282-.468,0.455-.458,0.47,0.283a0.8,0.8,0,0,0,.719.053l1.517-.629a0.8,0.8,0,0,0,.47-0.546l0.135-.539h0.641l0.134,0.539a0.8,0.8,0,0,0,.47.546l1.518,0.629a0.8,0.8,0,0,0,.719-0.053l0.47-.283,0.455,0.458-0.282.468a0.8,0.8,0,0,0-.053.719l0.628,1.518a0.8,0.8,0,0,0,.546.47l0.516,0.129Z" transform="translate(-495 -913)"/>
</svg>
