<svg xmlns="http://www.w3.org/2000/svg" width="12.688" height="13" viewBox="0 0 12.688 13">
  <metadata><?xpacket begin="﻿" id="W5M0MpCehiHzreSzNTczkc9d"?>
<x:xmpmeta xmlns:x="adobe:ns:meta/" x:xmptk="Adobe XMP Core 5.6-c138 79.159824, 2016/09/14-01:09:01        ">
   <rdf:RDF xmlns:rdf="http://www.w3.org/1999/02/22-rdf-syntax-ns#">
      <rdf:Description rdf:about=""/>
   </rdf:RDF>
</x:xmpmeta>
                                                                                                    
                                                                                                    
                                                                                                    
                                                                                                    
                                                                                                    
                                                                                                    
                                                                                                    
                                                                                                    
                                                                                                    
                                                                                                    
                                                                                                    
                                                                                                    
                                                                                                    
                                                                                                    
                                                                                                    
                                                                                                    
                                                                                                    
                                                                                                    
                                                                                                    
                                                                                                    
                           
<?xpacket end="w"?></metadata>
<defs>
    <style>
      .cls-1 {
        fill: #00aad2;
        fill-rule: evenodd;
      }
    </style>
  </defs>
  <path id="Forma_1" data-name="Forma 1" class="cls-1" d="M921.242,17.5a1.548,1.548,0,0,0-1.149-.491h-9.444a1.551,1.551,0,0,0-1.15.491,1.62,1.62,0,0,0-.48,1.175v9.657a1.622,1.622,0,0,0,.48,1.176,1.552,1.552,0,0,0,1.15.491h9.444a1.549,1.549,0,0,0,1.149-.491,1.622,1.622,0,0,0,.48-1.176V18.671A1.62,1.62,0,0,0,921.242,17.5Zm-7.662,4.19a2.567,2.567,0,0,1,3.606,0,2.512,2.512,0,0,1,0,3.577,2.565,2.565,0,0,1-3.606,0A2.512,2.512,0,0,1,913.58,21.686Zm6.7,6.3a0.5,0.5,0,0,1-.149.368,0.486,0.486,0,0,1-.355.148h-8.841a0.484,0.484,0,0,1-.36-0.148,0.507,0.507,0,0,1-.144-0.368V22.5H911.6a3.692,3.692,0,0,0-.166,1.108,3.753,3.753,0,0,0,1.158,2.769,3.821,3.821,0,0,0,2.787,1.146,3.948,3.948,0,0,0,3.424-1.95,3.808,3.808,0,0,0,.529-1.966,3.725,3.725,0,0,0-.165-1.108h1.116v5.48h0Zm0-7.552a0.568,0.568,0,0,1-.166.414,0.543,0.543,0,0,1-.4.169h-1.438a0.545,0.545,0,0,1-.406-0.169,0.571,0.571,0,0,1-.165-0.414v-1.4a0.574,0.574,0,0,1,.165-0.41,0.539,0.539,0,0,1,.406-0.174h1.438a0.537,0.537,0,0,1,.4.174,0.571,0.571,0,0,1,.166.41v1.4Z" transform="translate(-909.031 -17)"/>
</svg>
