<svg width="40" height="24" viewBox="0 0 40 24" fill="none" xmlns="http://www.w3.org/2000/svg">
<path fill-rule="evenodd" clip-rule="evenodd" d="M40 12.0004C40 18.6285 31.0469 24 20.0002 24C8.95393 24 0 18.6285 0 12.0004C0 5.37211 8.95393 0 20.0002 0C31.0469 0 40 5.37211 40 12.0004ZM23.6619 18.4001C23.6987 18.2961 23.7328 18.1997 23.7647 18.1128C25.7533 12.6978 21.9878 13.3706 20.973 13.6202C19.2412 14.0506 17.5887 14.7877 16.2674 15.3788C12.4979 17.0673 10.4986 18.7647 9.83463 19.4152L9.79546 19.4544C9.73427 19.5155 9.68597 19.5638 9.65243 19.6039C9.55638 19.7124 9.48829 19.8285 9.48829 19.9856C9.48829 20.1619 9.62435 20.3052 9.88934 20.4097C9.8969 20.4128 9.91083 20.4189 9.92657 20.4258C9.9529 20.4374 9.98473 20.4514 9.99947 20.4569C12.8765 21.485 16.311 22.084 20.0038 22.084C20.0108 22.084 20.0201 22.0842 20.0315 22.0844C20.0685 22.0851 20.1276 22.0861 20.2027 22.0832C20.6461 22.0703 21.139 21.956 21.5386 21.7247C22.7309 21.0288 23.3149 19.3799 23.6619 18.4001ZM34.2063 5.73606C34.0362 5.75002 33.9402 5.86953 33.87 6.01569C33.8256 6.10955 33.7678 6.25167 33.7095 6.39574C32.944 8.4759 30.251 15.6789 26.7142 20.5646C26.6286 20.6835 26.5825 20.7595 26.5405 20.8444C26.4601 21.008 26.4778 21.1375 26.5405 21.2165C26.6372 21.3395 26.9122 21.3414 27.3298 21.2483C33.8226 19.6901 38.3641 16.135 38.3641 11.9946C38.3641 9.70338 36.9716 7.58943 34.6243 5.89534C34.4293 5.75463 34.2996 5.72882 34.2063 5.73606ZM16.4 5.57146C16.3625 5.67717 16.3278 5.77514 16.2953 5.86334C14.3062 11.278 18.0718 10.6075 19.0888 10.3546C20.8185 9.92577 22.4712 9.18882 23.7944 8.59735C27.5609 6.90856 29.5617 5.21264 30.225 4.5611C30.3057 4.48172 30.3668 4.42023 30.4071 4.37354C30.5032 4.26273 30.5725 4.14711 30.5725 3.9935C30.5709 3.81549 30.4354 3.67195 30.1702 3.56802L30.1592 3.56315C30.1322 3.5512 30.0795 3.52786 30.0608 3.52243C27.1831 2.49189 23.747 1.89355 20.0545 1.89355L20.0439 1.89341L20.0254 1.89292C19.9891 1.89188 19.9314 1.89022 19.8571 1.89355C19.4145 1.90803 18.9206 2.01921 18.5211 2.25288C17.331 2.94601 16.7475 4.59148 16.4 5.57146ZM13.4584 2.77824C13.3608 2.65485 13.0863 2.65291 12.6697 2.74802C6.17524 4.3023 1.63206 7.85883 1.63206 11.9985C1.63206 14.2901 3.02598 16.403 5.37419 18.0996C5.57004 18.2387 5.69798 18.2652 5.79241 18.2581C5.96157 18.2457 6.05687 18.1259 6.12689 17.9776C6.17208 17.8834 6.23089 17.7422 6.28852 17.5982C7.05454 15.5177 9.7475 8.31363 13.2837 3.42752C13.3683 3.31012 13.4133 3.23357 13.4584 3.14752C13.5373 2.98558 13.5182 2.8562 13.4584 2.77824Z" fill="#004387"/>
</svg>
