<svg id="Logo" xmlns="http://www.w3.org/2000/svg" width="253" height="34" viewBox="0 0 253 34">
  <metadata><?xpacket begin="﻿" id="W5M0MpCehiHzreSzNTczkc9d"?>
<x:xmpmeta xmlns:x="adobe:ns:meta/" x:xmptk="Adobe XMP Core 5.6-c138 79.159824, 2016/09/14-01:09:01        ">
   <rdf:RDF xmlns:rdf="http://www.w3.org/1999/02/22-rdf-syntax-ns#">
      <rdf:Description rdf:about=""/>
   </rdf:RDF>
</x:xmpmeta>
                                                                                                    
                                                                                                    
                                                                                                    
                                                                                                    
                                                                                                    
                                                                                                    
                                                                                                    
                                                                                                    
                                                                                                    
                                                                                                    
                                                                                                    
                                                                                                    
                                                                                                    
                                                                                                    
                                                                                                    
                                                                                                    
                                                                                                    
                                                                                                    
                                                                                                    
                                                                                                    
                           
<?xpacket end="w"?></metadata>
<defs>
    <style>
      .cls-1 {
        fill: #004387;
        fill-rule: evenodd;
      }
    </style>
  </defs>
  <path class="cls-1" d="M801.3,4258.6v9.45H790.513v-9.45h-5.94v24.81h5.94v-9.98H801.3v9.98h5.938V4258.6H801.3Zm27.719,0-6.213,9.82-6.212-9.82h-7.013l10.259,16.21v8.6h5.933v-8.6l10.255-16.21h-7.009Zm26.117,0v18.19a1.222,1.222,0,0,1-1.262,1.24h-9.522V4258.6h-5.935v24.81h17.548a4.725,4.725,0,0,0,5.1-5.07V4258.6h-5.932Zm28.994,0H866.571v24.81h5.936v-19.44h9.531a1.232,1.232,0,0,1,1.257,1.24v18.2h5.933v-19.74a5.009,5.009,0,0,0-1.37-3.7,5.091,5.091,0,0,0-3.732-1.37m28.162,0H894.733v24.81h17.555a5.061,5.061,0,0,0,3.722-1.37,5,5,0,0,0,1.374-3.7v-14.67a4.988,4.988,0,0,0-1.374-3.7,5.069,5.069,0,0,0-3.722-1.37m-0.837,6.66v11.49a1.25,1.25,0,0,1-1.267,1.28h-9.52v-14.06h9.482A1.24,1.24,0,0,1,911.451,4265.26Zm16.281-6.66a5.055,5.055,0,0,0-3.724,1.37,5,5,0,0,0-1.374,3.7v19.74h5.925v-7.68h10.79v7.68h5.931V4258.6H927.732Zm11.617,5.37v6.39h-10.79v-5.13a1.258,1.258,0,0,1,1.267-1.26h9.523Zm11.713,19.44H957V4258.6h-5.938v24.81Zm-213.223,2.53a61.269,61.269,0,0,1-16.943-2.27l-0.079-.03c-0.462-.13-1.32-0.38-1.32-1.08a1.122,1.122,0,0,1,.384-0.8c0.046-.04.105-0.09,0.172-0.15l0.156-.14a24.875,24.875,0,0,1,3.339-2.27,51.608,51.608,0,0,1,7.775-3.63l0.06-.02a53.788,53.788,0,0,1,8.035-2.54,10.7,10.7,0,0,1,2.234-.25,5.6,5.6,0,0,1,2.039.33,2.86,2.86,0,0,1,1.4,1.1c0.809,1.22.638,3.18-.507,5.8l-0.152.38c-0.615,1.48-1.638,3.95-3.812,5.02a6.151,6.151,0,0,1-2.417.55,1.131,1.131,0,0,1-.176.01A1.249,1.249,0,0,1,737.839,4285.94Zm10.928-1.36c-0.02-.02-0.039-0.05-0.056-0.07a0.762,0.762,0,0,1-.009-0.88,2.553,2.553,0,0,1,.332-0.47c5.464-6.38,9.8-15.52,11.907-20.42a5.765,5.765,0,0,1,.286-0.54,1.041,1.041,0,0,1,.569-0.54,0.742,0.742,0,0,1,.3-0.06,0.5,0.5,0,0,1,.125-0.01,1.567,1.567,0,0,1,.808.28c4.3,2.63,6.576,5.79,6.576,9.12,0,5.99-7.52,11.38-19.164,13.74a4.907,4.907,0,0,1-.9.1A0.985,0.985,0,0,1,748.767,4284.58Zm-36.036-4.46c-4.36-2.66-6.661-5.81-6.661-9.12,0-5.99,7.523-11.38,19.166-13.73a5.188,5.188,0,0,1,.944-0.11,1.02,1.02,0,0,1,.807.26,0.143,0.143,0,0,1,.035.04,0.75,0.75,0,0,1,.027.93,4.335,4.335,0,0,1-.324.45c-4.028,4.7-8.143,11.75-11.9,20.41l-0.061.12c-0.084.17-.164,0.34-0.236,0.47a1.142,1.142,0,0,1-.605.51,1.276,1.276,0,0,1-.3.06A1.7,1.7,0,0,1,712.731,4280.12ZM732.4,4269a3,3,0,0,1-1.724-1.21c-0.811-1.23-.642-3.18.5-5.81l0.177-.41c0.613-1.47,1.638-3.92,3.8-4.99a6.124,6.124,0,0,1,2.424-.55h0.36a60.3,60.3,0,0,1,16.96,2.3l0.137,0.04a1.339,1.339,0,0,1,1.247,1.04,1.081,1.081,0,0,1-.376.78,2.577,2.577,0,0,1-.347.31,25.445,25.445,0,0,1-3.574,2.4,52.4,52.4,0,0,1-7.528,3.5,53.9,53.9,0,0,1-8.1,2.57,11.457,11.457,0,0,1-2.239.25A6.275,6.275,0,0,1,732.4,4269Zm-28.4,2c0,9.37,15.179,17,33.833,17s33.836-7.63,33.836-17-15.178-17-33.836-17S703.994,4261.63,703.994,4271Z" transform="translate(-704 -4254)"/>
</svg>
