<svg xmlns="http://www.w3.org/2000/svg" width="13.906" height="12.125" viewBox="0 0 13.906 12.125">
  <metadata><?xpacket begin="﻿" id="W5M0MpCehiHzreSzNTczkc9d"?>
<x:xmpmeta xmlns:x="adobe:ns:meta/" x:xmptk="Adobe XMP Core 5.6-c138 79.159824, 2016/09/14-01:09:01        ">
   <rdf:RDF xmlns:rdf="http://www.w3.org/1999/02/22-rdf-syntax-ns#">
      <rdf:Description rdf:about=""/>
   </rdf:RDF>
</x:xmpmeta>
                                                                                                    
                                                                                                    
                                                                                                    
                                                                                                    
                                                                                                    
                                                                                                    
                                                                                                    
                                                                                                    
                                                                                                    
                                                                                                    
                                                                                                    
                                                                                                    
                                                                                                    
                                                                                                    
                                                                                                    
                                                                                                    
                                                                                                    
                                                                                                    
                                                                                                    
                                                                                                    
                           
<?xpacket end="w"?></metadata>
<defs>
    <style>
      .cls-1 {
        fill-rule: evenodd;
      }
    </style>
  </defs>
  <path class="cls-1" d="M943.332,23.235l3.206,1.2,1.241,4a0.377,0.377,0,0,0,.6.18l1.787-1.46a0.533,0.533,0,0,1,.65-0.018l3.224,2.346a0.378,0.378,0,0,0,.592-0.229l2.361-11.386a0.378,0.378,0,0,0-.506-0.431l-13.158,5.089A0.379,0.379,0,0,0,943.332,23.235Zm4.247,0.561,6.266-3.868a0.109,0.109,0,0,1,.132.173l-5.172,4.819a1.074,1.074,0,0,0-.332.643L948.3,26.871a0.162,0.162,0,0,1-.316.023L947.3,24.507A0.633,0.633,0,0,1,947.579,23.8Z" transform="translate(-943.094 -17.438)"/>
</svg>
